<svg width="16" height="15" viewBox="0 0 16 15" fill="none" xmlns="http://www.w3.org/2000/svg">
<path d="M15.501 2.31966C14.8309 0.944461 12.9006 -0.180704 10.6553 0.474392C9.58235 0.784307 8.64624 1.44893 7.99989 2.35967C7.35354 1.44893 6.41743 0.784307 5.3445 0.474392C3.09417 -0.170703 1.16888 0.944461 0.498786 2.31966C-0.441352 4.24495 -0.0512946 6.41026 1.65896 8.75561C2.99915 10.5909 4.91444 12.4512 7.69484 14.6115C7.78271 14.68 7.89095 14.7172 8.00239 14.7172C8.11382 14.7172 8.22207 14.68 8.30994 14.6115C11.0853 12.4562 13.0056 10.6109 14.3458 8.75561C16.0511 6.41026 16.4411 4.24495 15.501 2.31966Z" fill="#F94C00"/>
</svg>
